<?xml version="1.0" encoding="UTF-8" standalone="no"?>

<svg
   xmlns:svg="http://www.w3.org/2000/svg"
   xmlns="http://www.w3.org/2000/svg"
   xmlns:xlink="http://www.w3.org/1999/xlink"
   version="1.0"
   viewBox="0 0 105 57"
   id="svgroot">

<defs>
  <filter id="shadow">
    <feDropShadow dx="0.6" dy="0.6" stdDeviation="0.5" flood-opacity="0.5"/>
  </filter>

  <filter id="darken">
    <feComponentTransfer>
      <feFuncR type="linear" slope="0.5" />
      <feFuncG type="linear" slope="0.5" />
      <feFuncB type="linear" slope="0.5" />
    </feComponentTransfer>
  </filter>
</defs>

<g id="kilt" filter="url(#shadow)" >

  <path id="main-part"
        d="M 12,15
           l -5,33
           l 36,0
           l -5,-33
           z
          "
        stroke-width="2"
        stroke-linecap="round"
        stroke-linejoin="round"
        stroke="#345beb"
        fill="#71d1a4"
        />

  <path id="bag"
        d="M 19,15
           l 0,10
           l 12,0
           l 0,-10
           z
          "
        stroke-width="2"
        stroke-linecap="round"
        stroke-linejoin="round"
        stroke="#345beb"
        fill="#71d1a4"
        />

  <path id="bag-lid"
        d="M 19,15
           l 6,5
           l 6,-5
           z
          "
        stroke-width="2"
        stroke-linecap="round"
        stroke-linejoin="round"
        stroke="#345beb"
        fill="#71d1a4"
        />
</g>

<g
   aria-label="Kilt"
   id="caption"
   transform="translate(50,48)"
   filter="url(#shadow)"
   fill="#345beb"
   >
  <path
     d="m 21.525,-2.835 q 0.385,0.49 0.385,1.155 0,0.77 -0.595,1.26 -0.56,0.49 -1.295,0.49 -0.7,0 -1.225,-0.63 l -8.505,-10.955 -3.92,3.71 v 6.09 Q 6.37,-0.98 5.88,-0.49 5.39,0 4.62,0 3.85,0 3.36,-0.49 2.905,-0.98 2.905,-1.715 V -22.82 q 0,-0.7 0.49,-1.19 0.49,-0.49 1.26,-0.49 0.77,0 1.225,0.49 0.49,0.455 0.49,1.19 v 10.885 l 12.425,-12.04 q 0.665,-0.595 1.33,-0.595 0.63,0 1.085,0.525 0.455,0.525 0.455,1.12 0,0.525 -0.49,1.085 L 12.88,-14 Z"
     id="letter-K" />
  <path
     d="m 28.840004,-1.68 q 0,0.7 -0.49,1.19 -0.455,0.49 -1.19,0.49 -0.7,0 -1.19,-0.49 -0.455,-0.49 -0.455,-1.19 v -15.155 q 0,-0.7 0.455,-1.19 0.49,-0.49 1.19,-0.49 0.735,0 1.19,0.49 0.49,0.49 0.49,1.19 z m -1.68,-19.145 q -1.015,0 -1.47,-0.35 -0.42,-0.385 -0.42,-1.19 v -0.56 q 0,-0.84 0.455,-1.19 0.49,-0.35 1.47,-0.35 0.98,0 1.4,0.385 0.455,0.35 0.455,1.155 v 0.56 q 0,0.84 -0.455,1.19 -0.455,0.35 -1.435,0.35 z"
     id="letter-i" />
  <path
     d="m 37.239979,-1.68 q 0,0.7 -0.49,1.19 -0.49,0.49 -1.19,0.49 -0.7,0 -1.19,-0.49 -0.455,-0.49 -0.455,-1.19 v -22.54 q 0,-0.7 0.49,-1.19 0.49,-0.49 1.19,-0.49 0.7,0 1.155,0.49 0.49,0.49 0.49,1.19 z"
     id="letter-l" />
  <path
     d="m 47.354979,-15.085 v 10.43 q 0,1.75 1.575,1.75 0.245,0 0.665,-0.105 0.42,-0.14 0.665,-0.14 0.455,0 0.77,0.385 0.315,0.385 0.315,0.98 0,0.735 -0.84,1.26 -0.84,0.525 -1.89,0.525 -1.155,0 -2.135,-0.245 -0.945,-0.245 -1.715,-1.225 -0.735,-1.015 -0.735,-3.045 v -10.57 h -2.03 q -0.665,0 -1.12,-0.42 -0.42,-0.455 -0.42,-1.12 0,-0.665 0.42,-1.085 0.455,-0.42 1.12,-0.42 h 2.03 v -2.94 q 0,-0.7 0.455,-1.19 0.49,-0.49 1.225,-0.49 0.7,0 1.155,0.49 0.49,0.49 0.49,1.19 v 2.94 h 2.905 q 0.665,0 1.085,0.455 0.455,0.42 0.455,1.085 0,0.665 -0.455,1.085 -0.42,0.42 -1.085,0.42 z"
     id="letter-t" />
</g>
</svg>

